HIERARCHY
ROOT Hips
{
 OFFSET 0.000000 0.000000 0.000000
 CHANNELS 6 Xposition Yposition Zposition Zrotation Xrotation Yrotation
 JOINT Chest
 {
  OFFSET 0.000000 4.000000 0.000000
  CHANNELS 3 Zrotation Xrotation Yrotation
  JOINT Head
  {
   OFFSET 0.000000 24.803150 0.000000
   CHANNELS 3 Zrotation Xrotation Yrotation
   End Site
   {
    OFFSET 0.000000 9.448819 0.000000
   }
  }
  JOINT LeftUpArm
  {
   OFFSET 7.086614 23.228346 0.000000
   CHANNELS 3 Zrotation Xrotation Yrotation
   JOINT LeftLowArm
   {
    OFFSET 0.000000 -11.811024 0.000000
    CHANNELS 3 Zrotation Xrotation Yrotation
    End Site
    {
     OFFSET 0.000000 -11.811024 0.000000
    }
   }
  }
  JOINT RightUpArm
  {
   OFFSET -7.086614 23.228346 0.000000
   CHANNELS 3 Zrotation Xrotation Yrotation
   JOINT RightLowArm
   {
    OFFSET 0.000000 -11.811024 0.000000
    CHANNELS 3 Zrotation Xrotation Yrotation
    End Site
    {
     OFFSET 0.000000 -11.811024 0.000000
    }
   }
  }
 }
 JOINT LeftUpLeg
 {
  OFFSET 3.937008 0.000000 0.000000
  CHANNELS 3 Zrotation Xrotation Yrotation
  JOINT LeftLowLeg
  {
   OFFSET 0.000000 -16.929134 0.000000
   CHANNELS 3 Zrotation Xrotation Yrotation
   End Site
   {
    OFFSET 0.000000 -19.685040 0.000000
   }
  }
 }
 JOINT RightUpLeg
 {
  OFFSET -3.937008 0.000000 0.000000
  CHANNELS 3 Zrotation Xrotation Yrotation
  JOINT RightLowLeg
  {
   OFFSET 0.000000 -16.929134 0.000000
   CHANNELS 3 Zrotation Xrotation Yrotation
   End Site
   {
    OFFSET 0.000000 -19.685040 0.000000
   }
  }
 }
}
MOTION
Frames: 27      
Frame Time: 0.033333
-33.425823 2.276437 52.630512 13.857116 -1.816227 -114.839882 6.681099 2.720058 -17.023178 9.041304 3.734124 -62.115383 6.302943 13.524629 -2.027156 -16.496761 -33.751461 -32.965336 -17.898380 -1.874586 21.723606 27.839981 -32.478371 35.350368 19.902580 -26.741905 25.141525 -4.089223 29.829170 -8.295220 16.154148 -38.880119 7.529296 -17.851372 58.079262 15.055062
-35.798943 2.346751 52.955719 13.768969 -3.200864 -119.527962 6.652807 1.747126 -18.930208 8.429239 2.541662 -62.044754 6.282178 14.325463 -2.914726 -16.057980 -32.920666 -32.858932 -17.357378 -2.333344 22.537165 27.611057 -32.026966 35.462704 17.468111 -22.182127 25.927914 -4.460133 29.047913 -5.922744 19.379862 -40.221333 10.945292 -10.650599 48.266636 13.085970
-36.950348 2.232490 53.061188 13.595571 -3.800943 -121.559662 6.711183 1.269489 -19.787462 7.559613 1.727677 -61.916695 6.270836 14.764961 -3.498270 -15.955755 -32.707699 -33.019051 -17.134302 -2.517373 22.972458 27.354940 -31.692385 35.390297 16.362288 -20.058950 25.783743 -4.783508 28.726597 -4.797101 20.722830 -39.822628 11.621611 -8.424703 41.740028 11.946774
-38.321484 2.091861 53.078770 13.294964 -4.405852 -123.558830 6.729160 0.912725 -20.429785 6.960598 0.514245 -61.703354 6.383613 14.707346 -4.333986 -15.772670 -32.133255 -33.057453 -16.858204 -2.843359 23.319622 26.902510 -31.189421 34.981709 15.133132 -17.908829 25.623896 -4.625207 28.573193 -4.180453 22.034544 -39.126835 11.602333 -7.440602 34.348312 10.960444
-40.694603 1.828181 53.026031 12.440210 -5.470166 -126.334435 6.522268 0.087443 -21.275616 5.544548 -0.875155 -60.855019 6.363020 14.928840 -5.196485 -15.531020 -31.477190 -34.145409 -16.142130 -2.688603 22.889578 26.039093 -30.202953 34.343353 12.236369 -14.046770 24.750662 -4.166167 29.192614 -3.365694 22.929169 -37.244141 10.434779 -8.089735 22.921787 10.539092
-41.995422 1.766655 52.911770 11.829603 -5.995832 -127.335114 6.388552 -0.210945 -21.776865 4.771268 -1.663516 -60.226639 6.193598 14.901948 -5.551740 -14.959288 -30.986635 -35.050991 -15.771455 -2.644622 22.398727 25.642412 -29.687794 33.881763 10.357665 -11.846941 24.199215 -3.269726 30.051491 -3.235687 22.879448 -35.961189 10.212463 -7.964555 18.481228 9.655463
-44.500381 1.643605 52.516251 10.692753 -6.793762 -128.779846 6.327361 -0.496631 -21.842031 2.815246 -3.076535 -58.141518 5.549637 14.734291 -5.769243 -14.252894 -30.489479 -36.445053 -15.119519 -2.258978 20.858706 25.405695 -29.670246 34.315693 7.535818 -9.746351 24.563704 -0.303740 34.532814 -4.669441 22.437437 -34.231049 13.187936 -7.440339 18.163607 7.759323
-45.801201 1.582080 52.234993 10.154517 -6.896901 -129.138443 6.705146 -0.233364 -21.617325 0.962147 -4.375366 -54.970669 5.485608 14.133263 -6.576800 -13.571477 -30.321672 -36.907368 -15.047903 -2.066197 19.704269 25.669804 -30.048079 35.472790 7.062955 -9.101079 24.895720 1.672072 38.653641 -7.258762 21.748577 -33.684811 15.107984 -6.263123 20.582186 6.081573
-48.033691 1.810602 51.962524 9.138640 -7.153285 -130.401932 7.182617 0.636270 -19.318981 -2.693783 -7.120807 -48.478081 5.709289 12.817444 -8.135199 -13.121343 -30.655073 -36.797676 -15.114051 -1.261422 17.518606 26.003784 -31.231590 36.759792 6.473735 -10.539183 25.045326 5.146841 47.267460 -12.125131 20.365095 -32.474766 17.139317 -5.746891 26.283873 6.474451
-49.308144 2.144597 51.839474 7.995509 -7.045862 -133.560211 7.103587 2.380970 -14.786710 -4.838997 -9.799944 -42.697403 5.961482 12.025066 -8.776055 -13.257676 -31.041721 -37.177280 -15.131046 -0.796042 15.852466 25.987162 -31.837358 36.878799 7.488229 -12.253489 26.634409 6.118499 53.830761 -14.143716 20.006954 -30.415457 19.494684 -5.761906 29.143284 7.143678
-50.310127 2.504959 51.742790 7.344917 -7.104486 -121.733803 7.413752 1.861856 -25.054169 -6.011560 -12.259660 -38.278721 6.381945 11.631538 -9.263594 -13.419044 -31.863953 -37.205933 -15.092873 -0.170498 14.589889 25.880320 -32.381874 36.122257 4.993166 -16.373148 12.686137 4.479234 59.362698 -13.537367 11.103312 -32.605679 4.705097 -5.565152 31.080647 7.715471
-52.164677 3.181738 51.452744 6.615627 -8.832447 -125.581772 5.375265 2.950303 -17.807104 -6.975648 -15.308600 -32.128765 7.309767 11.012143 -9.778392 -14.226949 -33.351810 -36.993801 -14.609567 1.026744 12.463587 25.117134 -32.767502 33.904350 6.077885 -21.523674 14.026872 -0.941833 65.382721 -8.805744 9.326223 -30.339352 6.319863 -6.608046 32.630589 9.316086
-53.333660 3.480575 51.153904 6.549062 -9.094972 -125.121895 4.849990 3.681832 -16.296370 -6.567496 -17.463583 -28.986122 7.663049 10.795485 -9.160131 -14.967023 -34.391716 -36.735970 -14.280619 1.380996 11.887686 24.448339 -32.685852 32.390949 8.157788 -24.934713 14.036640 -4.085821 68.247536 -5.794965 7.422658 -28.588402 4.909139 -6.621449 32.431656 9.695291
-54.397167 3.647572 50.899014 6.745858 -9.247890 -124.470695 4.416984 3.950243 -15.478545 -6.286357 -17.891733 -28.334990 7.936556 10.788746 -8.814503 -15.229980 -35.173477 -36.074326 -14.054413 1.616473 11.702884 24.113960 -32.507195 31.802170 9.734187 -27.250172 14.327520 -4.483503 68.159729 -4.814706 6.025916 -27.255249 4.235301 -6.115086 32.203720 9.253474
-56.524185 3.867306 50.459549 7.374929 -9.083781 -122.912163 3.972368 4.276702 -14.633099 -5.436544 -16.586088 -29.737244 7.728251 11.375819 -6.658442 -16.363615 -36.388798 -36.659096 -13.969522 1.493019 12.631321 22.560566 -31.619419 30.972288 13.712063 -31.639387 15.878139 -4.593222 64.112564 -4.042424 4.077365 -24.615438 3.244252 -5.736002 31.884958 8.507019
-57.561325 4.122196 50.187077 8.037402 -9.149457 -121.943741 3.828036 3.907706 -14.695305 -4.765306 -15.326111 -32.322884 7.544421 11.966149 -5.793462 -16.957373 -36.921406 -36.551655 -14.205993 1.451991 13.472968 22.122931 -31.247770 31.150126 15.236271 -34.410179 15.946066 -5.867898 60.491333 -2.204727 3.234190 -23.535376 2.893989 -5.809059 31.569599 8.178698
-59.661976 4.201300 49.659718 9.192563 -8.880813 -120.589897 3.422805 3.333178 -14.720472 -2.825128 -12.485735 -39.587391 7.948998 13.072309 -4.335551 -18.137600 -37.649796 -37.186260 -14.692533 1.160828 15.044188 21.542204 -30.265190 30.985798 17.457695 -38.183788 16.047363 -7.730131 51.905392 0.464337 2.249527 -21.353226 2.486478 -6.074245 31.355810 8.377653
-60.848537 4.421033 49.431194 10.259770 -8.790565 -120.125725 2.709646 2.578664 -14.551761 -0.756261 -8.881509 -48.245625 8.066752 14.462015 -2.829805 -19.064274 -37.913620 -38.259449 -14.731453 1.065248 16.205355 21.471769 -29.480320 31.260693 20.003588 -41.360416 16.295662 -9.276452 43.217438 3.265965 1.937826 -19.963129 2.957914 -6.384401 30.850346 8.007213
-62.870083 4.368298 49.035675 11.617051 -8.305558 -120.271507 2.563301 1.586744 -14.830528 1.186141 -5.846453 -56.054169 7.829155 15.894423 -0.939625 -19.597321 -38.070141 -38.527481 -15.772674 0.400286 18.997181 21.737591 -28.281490 31.826145 23.475576 -43.935135 17.256550 -7.921256 35.294422 2.358890 2.007826 -17.914026 3.941075 -6.279813 30.295467 7.602999
-64.645531 4.166143 49.044464 12.694704 -7.668488 -120.700066 2.690112 0.693283 -15.185333 3.216331 -2.707587 -61.194191 7.085603 17.102581 0.727299 -19.445313 -37.885910 -38.547409 -16.203712 -0.096391 21.102701 21.885635 -27.190134 32.202648 27.484270 -45.195110 19.956617 -4.774660 29.971083 -1.277436 1.906690 -16.221842 3.823530 -6.050780 29.525394 7.703321
-67.150490 4.025514 49.211464 13.438542 -6.996581 -122.461647 3.230820 0.299676 -15.185759 4.354853 -0.772749 -62.586155 6.336608 17.671261 2.276670 -19.259880 -37.762295 -38.679214 -17.069874 -1.393357 23.953775 21.955997 -25.758047 31.848429 31.845522 -44.768341 24.640062 -2.630424 26.953613 -4.883963 0.915466 -14.241243 3.719434 -5.236375 30.361229 7.447372
-69.128090 3.832148 49.642139 13.342390 -6.782705 -124.269478 3.130105 0.146105 -15.079643 4.803755 0.405556 -63.112366 6.007456 18.293804 2.394269 -19.074526 -37.964153 -38.787971 -17.452925 -1.940656 25.510475 21.903118 -24.649937 31.768213 34.714180 -44.467823 29.425842 -2.662453 26.828707 -9.348989 -0.811474 -13.030412 3.024335 -5.069050 31.947916 7.692417
-70.551956 3.858516 49.730034 13.448386 -6.902967 -125.865196 2.971947 -0.174615 -14.695877 4.756273 0.604135 -62.432354 6.263544 18.262936 2.457947 -19.314426 -38.039467 -39.912331 -17.400877 -2.019422 25.812983 21.917116 -23.959866 31.822035 35.395767 -43.788364 31.180796 -3.668844 27.474897 -10.909617 -2.178574 -13.245930 2.554301 -5.521307 34.629478 8.393005
-72.547134 3.946409 49.721245 13.194497 -6.860103 -128.072922 2.797277 0.098565 -13.760310 4.784801 0.056174 -62.222599 7.155468 17.958733 1.429524 -20.037859 -38.480331 -41.387257 -17.154408 -1.847597 24.705641 21.911720 -23.448500 32.162338 35.608795 -42.409344 33.892902 -5.365583 31.782673 -14.010894 -1.856342 -15.043374 2.412424 -9.001616 41.356236 9.199977
-74.595047 3.779412 49.765190 13.095994 -6.831499 -130.187668 2.859317 0.227659 -13.425883 3.986574 -0.523850 -62.013870 8.024322 17.369081 0.178749 -20.372511 -38.401699 -42.259636 -16.661737 -1.762489 23.640734 21.750736 -23.178850 32.589195 33.165321 -41.096657 33.075638 -3.795446 37.709629 -14.390685 0.142711 -17.211218 2.378871 -15.496909 46.366203 12.798866
-76.344124 3.963988 49.967346 13.350355 -6.470491 -131.723892 3.334085 0.210919 -13.484112 3.501207 -0.786062 -61.592331 8.268346 17.402384 -0.326805 -20.243074 -38.467445 -42.807755 -16.071394 -1.544236 22.448175 21.446270 -23.266338 32.662277 31.935200 -39.833450 31.792444 -1.548901 41.228062 -14.608162 0.355902 -20.649315 -7.265238 -30.407669 47.956741 29.988873
-78.198677 4.192511 49.905819 13.522400 -6.360006 -132.868851 3.585273 0.280388 -13.663095 3.099001 -1.120434 -61.741558 8.456796 16.795370 -1.791639 -19.669790 -37.470963 -41.882908 -15.746718 -1.323031 21.037354 21.565159 -23.807915 32.540066 28.939289 -36.712002 30.504847 -0.333775 42.118748 -13.624238 1.019605 -22.728296 -2.657330 -29.514944 51.789673 27.327757
